{"glyphs":{"仓":{"ha":1389,"x_min":53,"x_max":1321,"o":"m 682 886 q 560 703 644 790 q 369 547 476 617 q 432 540 393 549 q 479 533 460 533 q 503 536 486 533 q 608 551 560 546 q 779 581 713 564 q 885 635 846 597 q 967 610 938 635 q 1029 536 997 585 q 1051 503 1046 508 q 1034 426 1043 467 q 1024 350 1025 385 q 999 147 1018 226 q 924 26 981 67 q 906 19 915 21 q 879 17 897 17 q 851 47 860 36 q 810 88 829 75 l 733 135 q 701 153 715 144 q 678 172 688 163 q 771 185 739 175 q 824 211 803 194 q 845 299 836 224 q 854 439 854 375 q 850 492 854 478 q 742 478 811 481 q 651 465 678 472 q 618 458 633 460 q 580 450 592 454 q 564 436 568 446 l 564 371 q 556 322 556 357 l 557 257 q 551 178 557 233 q 546 86 546 117 q 583 -39 546 -1 q 739 -61 615 -61 q 951 -46 844 -61 q 1075 -10 1057 -31 q 1103 48 1088 11 q 1122 96 1118 85 q 1140 139 1128 108 q 1163 189 1151 169 q 1181 103 1165 146 q 1225 10 1197 61 q 1257 -59 1247 -33 q 1267 -106 1267 -85 q 1203 -172 1267 -151 q 1019 -203 1150 -189 q 757 -218 888 -218 q 522 -198 618 -218 q 403 -133 426 -178 q 371 67 371 -71 q 381 268 371 149 q 389 450 389 396 q 374 470 381 457 q 361 497 367 483 q 346 532 351 524 q 180 445 260 478 q 65 413 100 413 q 53 414 56 413 q 366 704 258 572 q 529 979 474 836 q 532 1036 532 1015 l 533 1064 q 575 1071 551 1071 q 663 1056 615 1071 q 742 1017 711 1040 q 769 969 774 993 l 763 963 l 783 944 q 873 872 833 901 q 961 819 913 843 q 1084 770 1024 790 q 1226 726 1144 750 q 1321 699 1315 700 q 1301 667 1314 681 q 1261 635 1288 654 q 1163 542 1201 589 q 1132 532 1150 532 q 703 906 1025 532 l 682 886 l 682 886 m 563 836 q 555 829 560 833 q 548 818 550 825 q 544 801 546 811 l 553 801 q 564 817 557 808 q 572 836 571 825 l 563 836 l 563 836 m 1108 658 q 1110 653 1108 654 q 1111 649 1111 651 q 1117 645 1114 646 q 1125 644 1119 644 q 1122 654 1124 649 q 1121 663 1121 660 q 1111 658 1113 660 l 1108 658 l 1108 658 m 528 478 q 542 488 539 483 l 542 492 l 522 492 l 528 478 l 528 478 m 453 -44 q 442 -39 449 -40 q 425 -37 435 -37 q 466 -101 433 -76 q 544 -133 499 -125 l 544 -125 q 519 -108 529 -118 q 494 -82 508 -99 q 453 -44 471 -54 l 453 -44 m 1117 -99 q 1126 -86 1119 -93 l 1117 -83 l 1108 -99 l 1117 -99 l 1117 -99 m 569 -111 q 553 -108 558 -108 q 563 -113 558 -112 q 569 -115 567 -114 l 569 -111 l 569 -111 z "},"光":{"ha":1389,"x_min":47,"x_max":1331,"o":"m 1307 450 q 1236 444 1300 444 l 1107 446 q 964 449 1007 449 q 867 442 878 449 l 857 372 q 840 240 849 308 q 832 122 832 171 q 872 -6 832 11 q 985 -29 904 -29 q 1072 -22 1029 -29 q 1135 -4 1115 -15 q 1218 182 1192 133 q 1250 85 1235 119 q 1268 44 1265 50 q 1285 4 1272 31 q 1314 -103 1314 -65 q 1265 -170 1314 -154 q 1099 -186 1217 -186 l 1029 -187 q 831 -171 915 -187 q 717 -107 747 -154 q 675 63 675 -46 q 689 229 675 118 q 701 343 697 299 q 701 429 704 388 q 619 422 693 428 q 539 413 544 417 q 646 335 640 394 q 617 292 628 317 q 594 226 607 267 q 565 153 576 174 q 444 -23 506 49 q 286 -150 382 -94 q 47 -240 190 -206 l 75 -215 q 301 10 215 -87 q 415 208 388 108 q 431 264 417 214 q 444 357 444 314 q 440 389 444 376 q 327 360 443 379 q 158 340 211 340 q 139 343 144 340 q 106 386 126 349 q 67 467 86 424 q 47 519 49 510 q 63 524 56 524 q 89 515 69 524 q 168 497 125 497 q 412 510 269 497 q 568 533 554 524 l 569 578 q 579 910 579 846 q 574 997 579 988 q 547 1029 568 1014 q 528 1048 535 1039 q 519 1072 521 1057 q 594 1088 551 1088 q 694 1069 643 1088 q 785 1022 744 1050 q 764 906 771 989 q 749 657 757 822 l 742 539 l 781 546 q 897 558 847 554 q 1010 573 972 567 q 1078 595 1047 579 q 1139 643 1110 611 q 1219 619 1174 647 q 1297 551 1264 592 q 1331 481 1331 510 q 1307 450 1331 458 l 1307 450 m 1179 888 q 1057 760 1122 813 q 858 619 992 707 q 921 757 874 679 q 979 880 960 825 q 999 1014 999 935 q 1026 1021 1010 1021 q 1090 999 1056 1021 q 1151 944 1125 976 q 1179 888 1176 913 l 1179 888 m 376 594 q 349 574 363 574 q 265 703 307 574 q 206 968 224 832 q 269 928 243 950 q 333 868 296 906 q 432 778 378 821 q 464 715 464 744 q 451 678 464 694 q 414 640 438 661 q 376 594 381 610 l 376 594 m 382 736 q 391 739 388 739 q 397 740 394 739 l 399 746 l 376 757 l 376 738 l 382 736 l 382 736 m 314 708 q 332 669 314 681 l 338 679 q 326 692 329 685 q 319 708 322 699 q 315 724 317 718 l 314 708 l 314 708 m 742 429 q 750 442 749 436 q 742 446 747 444 l 739 429 l 742 429 l 742 429 m 436 75 q 438 83 438 81 q 436 90 439 85 l 433 72 l 436 72 l 436 75 l 436 75 m 756 76 q 753 56 753 71 q 760 24 753 32 q 767 11 764 15 q 776 3 771 7 l 776 8 q 782 17 779 11 q 773 46 776 24 q 767 74 769 68 q 756 76 756 76 l 756 76 m 840 -111 q 791 -92 818 -108 q 756 -72 764 -76 q 785 -101 764 -86 q 822 -117 806 -117 q 840 -111 833 -117 l 840 -111 m 1153 -119 q 1167 -125 1158 -125 q 1183 -119 1178 -125 l 1153 -119 l 1153 -119 z "},"公":{"ha":1389,"x_min":25,"x_max":1354,"o":"m 1354 489 q 1297 445 1354 478 q 1174 385 1239 413 q 1089 361 1110 358 q 1021 411 1049 379 q 976 480 993 443 q 933 582 958 517 l 913 639 q 878 739 897 676 q 806 923 842 851 q 706 1047 771 994 q 731 1056 706 1056 q 834 1024 775 1056 q 933 921 893 992 q 1059 739 990 819 q 1225 569 1128 658 q 1279 536 1242 556 q 1354 489 1335 508 l 1354 489 m 540 836 q 407 608 465 694 q 256 444 349 521 q 25 322 163 368 q 178 516 93 383 q 325 784 264 649 q 388 988 386 919 q 372 997 382 992 q 354 1009 361 1003 q 347 1024 347 1015 q 414 1047 369 1047 q 506 1027 458 1047 q 569 982 554 1007 q 583 942 583 964 q 575 903 583 922 q 556 865 567 883 q 540 836 546 846 l 540 836 m 949 756 q 924 792 942 769 l 908 792 q 915 755 907 771 q 944 738 924 739 l 949 756 l 949 756 m 900 313 q 1101 192 994 278 q 1285 0 1208 107 q 1258 -87 1282 -42 q 1201 -161 1235 -132 q 1139 -189 1168 -190 l 1079 -90 q 1043 -32 1051 -49 q 771 -97 1029 -32 q 546 -153 544 -157 q 508 -182 525 -167 q 449 -222 475 -210 q 378 -236 424 -235 q 318 -180 344 -200 q 258 -139 292 -160 q 230 -118 238 -125 q 222 -100 222 -111 q 233 -67 222 -89 q 312 15 263 -57 q 411 183 361 86 q 489 353 461 279 q 524 449 514 414 q 542 539 535 483 q 517 567 529 547 q 508 597 506 586 q 547 608 521 608 q 655 574 593 608 q 753 497 717 540 q 718 403 753 464 q 615 240 683 343 q 525 94 543 129 q 510 63 510 65 l 510 60 q 501 24 510 54 q 664 29 611 22 q 785 51 717 36 q 997 89 886 78 q 900 313 890 329 l 900 313 m 1114 469 q 1092 482 1104 475 q 1067 499 1081 489 q 1059 522 1063 508 q 1051 542 1056 536 q 1033 551 1046 547 l 1033 540 q 1060 503 1046 528 q 1083 469 1072 482 q 1113 450 1094 457 l 1113 457 l 1114 469 l 1114 469 m 1150 515 q 1176 508 1158 511 q 1175 519 1176 515 q 1171 526 1174 524 q 1169 526 1169 526 q 1164 529 1168 526 q 1150 536 1158 533 l 1150 515 l 1150 515 m 608 472 q 626 468 614 469 q 632 486 628 479 l 618 492 q 613 487 615 489 q 608 479 611 485 l 604 479 l 608 472 l 608 472 m 578 367 q 581 358 581 361 q 585 353 582 356 l 585 367 l 578 367 l 578 367 m 1101 50 q 1076 86 1092 58 q 1053 132 1061 114 l 1042 132 q 1065 85 1040 122 q 1100 40 1089 47 l 1101 50 l 1101 50 m 1118 -28 q 1140 -37 1128 -33 q 1140 -31 1140 -35 q 1136 -24 1139 -26 q 1119 -14 1131 -18 l 1118 -28 l 1118 -28 z "},"办":{"ha":1389,"x_min":65,"x_max":1358,"o":"m 1072 724 q 1069 680 1074 697 q 1056 635 1065 663 q 1042 593 1042 593 q 1028 439 1035 564 q 1002 130 1018 264 q 943 -108 986 -4 q 822 -210 900 -211 q 727 -128 808 -207 q 631 -22 646 -50 q 742 11 681 -22 q 825 83 803 44 q 856 507 856 379 q 828 694 856 640 q 738 678 769 681 q 647 674 707 675 q 521 112 653 339 q 129 -217 389 -115 q 147 -193 139 -203 q 161 -176 156 -183 q 271 -26 239 -78 q 337 113 303 25 q 444 421 371 200 q 451 476 449 451 q 457 519 454 500 q 476 650 467 607 q 397 632 461 647 q 308 610 344 618 q 239 603 272 603 q 167 619 193 603 q 117 674 142 633 q 83 771 93 715 q 104 779 83 779 l 153 776 q 207 774 165 776 q 299 771 271 771 q 442 781 385 771 q 511 811 499 792 l 514 899 q 507 952 514 931 q 478 1019 500 974 q 458 1061 465 1044 q 514 1072 483 1072 q 605 1056 557 1072 q 685 1012 653 1039 q 718 956 718 985 q 690 892 703 917 q 677 860 681 871 q 671 824 674 849 q 794 843 757 832 q 835 863 810 849 q 878 881 861 875 q 919 889 896 888 q 1014 789 942 867 l 1072 724 l 1072 724 m 928 558 q 924 676 931 611 q 897 771 918 740 q 894 774 896 774 q 885 775 892 775 q 878 763 881 768 q 875 747 876 757 q 905 673 897 719 q 915 558 913 626 l 928 558 l 928 558 m 138 51 q 88 148 107 86 q 65 282 69 210 l 94 307 q 228 426 175 376 q 342 544 282 476 q 347 489 347 522 q 301 282 347 393 l 279 225 q 233 118 251 156 q 186 51 215 81 l 138 51 l 138 51 m 1353 257 q 1358 226 1358 244 q 1312 126 1358 178 q 1197 51 1265 74 q 1132 264 1175 111 q 1054 521 1078 450 q 1159 473 1089 524 q 1289 357 1229 422 q 1353 257 1349 292 l 1353 257 m 129 239 q 133 244 131 240 q 139 254 136 247 q 133 265 135 263 q 130 258 132 261 q 124 243 128 254 l 129 239 l 129 239 m 208 181 q 203 175 204 172 l 203 160 q 208 172 207 168 q 211 178 210 176 q 208 181 213 181 l 208 181 m 350 -19 q 360 0 358 -10 q 363 31 363 10 l 357 31 q 350 24 357 31 l 326 -58 l 338 -58 q 342 -51 339 -57 q 348 -38 346 -46 q 350 -19 350 -31 l 350 -19 z "},"厂":{"ha":1389,"x_min":32,"x_max":1326,"o":"m 49 -174 q 111 -13 89 -83 q 155 194 133 57 q 196 575 176 331 q 200 674 200 629 q 188 850 200 747 q 182 939 178 911 q 144 986 160 971 q 149 993 149 992 q 154 995 150 994 q 171 999 158 996 q 385 946 217 946 q 581 958 476 946 q 865 994 685 969 q 1200 1031 1114 1032 l 1224 1008 q 1300 920 1274 960 q 1326 824 1326 881 q 1143 831 1297 826 q 701 835 989 835 l 613 835 q 590 836 606 836 q 476 822 557 836 q 390 808 418 811 q 384 657 392 732 q 361 488 376 582 l 349 406 q 238 22 319 176 q 32 -210 157 -133 l 49 -174 l 49 -174 z "},"品":{"ha":1389,"x_min":54,"x_max":1300,"o":"m 928 1081 q 982 1051 963 1069 q 1025 1000 1001 1033 q 1069 944 1053 960 q 1066 899 1071 918 q 1051 849 1061 879 q 1036 797 1039 813 q 1021 672 1026 746 q 1003 543 1013 586 q 978 478 993 501 q 929 443 964 454 q 863 485 924 438 l 836 504 q 801 510 825 510 q 739 503 785 510 l 706 497 q 617 480 693 494 q 510 450 542 465 q 490 423 501 440 q 465 395 479 406 q 428 382 451 385 q 410 397 422 388 q 390 417 397 407 q 377 448 381 431 q 372 493 374 465 q 371 517 372 499 q 365 551 369 536 q 351 648 356 597 q 342 778 346 699 q 315 1013 333 939 q 332 1017 324 1017 q 351 1010 342 1017 q 376 990 361 1004 q 406 967 393 975 q 433 954 418 958 q 465 951 443 951 q 576 971 510 951 q 808 1017 690 1004 q 844 1042 829 1035 q 876 1056 858 1050 q 928 1081 908 1067 l 928 1081 m 956 808 q 972 843 965 821 q 979 886 979 865 q 956 933 979 924 q 940 938 950 936 q 938 918 938 931 q 945 891 938 904 q 956 871 953 878 q 950 797 953 821 l 956 797 l 956 808 l 956 808 m 439 847 q 444 883 444 863 q 432 898 439 889 q 413 913 425 907 q 422 880 415 906 q 439 847 428 854 l 439 847 m 840 642 q 853 775 853 667 q 849 886 853 832 l 808 886 q 679 867 781 875 q 558 853 597 860 q 510 829 519 846 q 525 725 517 806 q 538 624 533 654 q 554 586 543 593 q 701 605 583 582 q 840 642 818 628 l 840 642 m 1247 425 q 1267 410 1260 418 q 1279 394 1274 403 q 1300 369 1285 385 q 1290 287 1299 335 q 1269 193 1281 239 q 1247 79 1254 122 q 1239 -1 1239 36 q 1242 -36 1239 -14 q 1271 -89 1271 -58 q 1264 -115 1271 -99 q 1233 -122 1254 -122 q 1190 -117 1221 -122 q 1174 -114 1183 -115 q 1153 -112 1165 -112 q 969 -128 1090 -110 l 942 -132 q 916 -178 936 -161 q 871 -199 896 -196 q 832 -169 861 -189 q 778 -126 796 -144 q 776 -53 776 -104 q 774 65 776 18 q 764 153 772 113 q 758 244 761 189 q 749 272 754 260 q 742 293 744 283 q 725 356 725 333 q 731 392 725 374 q 747 394 736 394 q 804 378 763 394 q 890 354 860 354 q 913 357 899 354 l 1099 393 q 1125 413 1106 397 q 1157 435 1142 428 q 1201 443 1172 442 q 1247 425 1215 435 l 1247 425 m 94 347 q 229 310 139 310 q 397 337 308 310 q 531 394 485 364 q 629 358 581 394 q 683 279 678 322 q 669 260 675 265 q 657 231 664 256 q 635 120 644 190 q 625 -11 625 50 q 629 -81 625 -51 q 652 -99 642 -85 q 663 -131 663 -112 q 653 -162 663 -147 q 601 -167 632 -167 q 519 -162 564 -167 q 479 -160 503 -161 q 424 -158 456 -158 q 304 -182 340 -158 q 276 -222 283 -208 q 267 -233 271 -231 q 254 -237 264 -236 q 228 -244 244 -239 l 185 -211 q 135 -172 151 -186 q 132 -41 133 -78 q 129 6 131 -4 q 117 197 125 40 q 86 260 107 226 q 65 300 72 283 q 54 336 57 317 q 63 341 57 338 q 76 346 68 344 q 94 347 83 347 l 94 347 m 1101 14 q 1115 122 1107 25 q 1122 271 1122 218 q 1006 260 1068 268 q 913 239 944 251 q 911 210 911 233 q 919 85 911 163 q 933 -15 926 7 q 1000 -19 963 -19 q 1101 14 1088 -19 l 1101 14 m 285 185 q 279 132 279 172 q 290 -2 279 69 q 314 -79 301 -74 q 354 -87 329 -87 q 416 -80 382 -87 q 468 -64 450 -72 q 481 26 481 -40 q 479 88 481 61 q 476 133 478 115 q 472 219 472 182 q 372 207 426 217 q 285 185 318 197 l 285 185 z "},"大":{"ha":1389,"x_min":39,"x_max":1374,"o":"m 1374 -36 q 1279 -90 1303 -78 q 1155 -166 1192 -142 q 1131 -194 1118 -190 q 926 -48 1017 -156 q 781 204 836 60 q 711 497 726 349 q 583 144 699 299 q 315 -97 468 -10 q 39 -194 161 -185 q 226 -31 124 -136 q 420 233 329 74 q 542 583 511 392 q 346 572 431 576 q 235 564 261 567 q 185 567 200 564 q 158 588 169 571 q 135 643 146 604 l 113 707 l 149 706 q 321 701 269 701 q 578 731 521 701 q 589 860 589 786 q 577 977 589 925 q 540 1054 565 1029 q 576 1063 551 1063 q 665 1051 619 1063 q 781 1019 711 1039 q 810 886 810 972 q 800 787 810 833 q 779 732 790 740 l 1076 758 q 1113 779 1094 765 q 1146 800 1131 793 q 1182 808 1161 807 q 1255 718 1224 765 q 1286 646 1286 671 q 1268 625 1286 626 q 1193 624 1247 624 l 965 625 q 823 622 875 625 q 765 607 771 618 q 883 375 811 472 q 1038 210 956 278 q 1261 44 1121 142 l 1374 -36 l 1374 -36 m 686 911 q 678 909 681 911 q 672 903 675 907 q 668 879 668 897 q 665 867 665 875 q 668 847 665 860 q 672 824 671 833 l 686 824 l 686 911 l 686 911 m 710 810 q 718 806 713 807 q 714 808 715 808 q 710 810 713 808 l 710 810 m 215 654 q 219 664 218 660 q 201 668 211 668 q 205 660 203 665 q 207 651 207 654 l 215 651 l 215 654 l 215 654 m 1051 -12 q 1056 0 1051 -12 q 1045 15 1051 4 q 1031 29 1039 26 q 1014 35 1022 33 q 1024 6 1014 19 q 1051 -12 1035 -8 l 1051 -12 z "},"宿":{"ha":1389,"x_min":-11,"x_max":1378,"o":"m 1147 464 q 1198 435 1171 454 q 1235 399 1225 417 q 1221 356 1226 410 q 1211 242 1215 301 q 1206 165 1207 182 q 1199 76 1201 85 l 1199 0 l 1200 -79 q 1195 -135 1200 -111 q 1176 -179 1190 -158 q 1133 -215 1164 -200 q 1086 -231 1103 -231 q 1060 -185 1082 -224 q 1025 -142 1038 -146 q 933 -146 996 -142 q 838 -151 869 -150 q 658 -161 711 -161 q 644 -197 651 -172 q 627 -224 638 -218 q 579 -231 617 -231 q 539 -196 558 -215 q 506 -167 524 -181 q 507 -97 506 -156 q 518 13 508 -37 q 522 131 522 74 q 517 289 522 214 l 515 329 q 501 378 513 350 q 490 428 492 400 q 517 438 500 438 q 552 430 533 438 q 597 408 571 422 q 619 399 604 406 q 640 390 633 392 q 675 396 650 394 q 707 397 700 397 q 742 399 714 397 q 786 406 771 400 q 794 492 794 440 l 793 564 q 626 546 772 551 l 586 543 q 551 574 585 544 q 510 610 526 594 q 482 646 494 625 l 500 657 q 522 651 513 654 q 549 647 531 649 q 564 644 549 644 q 771 658 611 644 l 951 672 q 997 689 972 679 q 1065 713 1039 704 q 1119 722 1092 721 q 1149 699 1132 715 q 1144 740 1149 714 q 1139 775 1140 765 q 1131 847 1128 835 q 616 825 865 840 q 267 793 367 810 q 246 715 258 746 q 220 667 233 685 q 174 611 207 649 q 103 646 128 610 q 67 714 78 682 q 51 754 56 746 q 71 783 63 767 q 88 821 79 799 q 169 1004 126 918 q 201 985 192 994 q 219 960 211 975 q 233 940 226 947 q 256 925 240 932 q 277 920 244 929 q 311 914 310 911 q 404 915 331 915 q 570 919 508 917 q 653 932 632 922 q 624 965 653 932 q 583 1015 599 993 q 550 1079 568 1038 q 622 1074 572 1076 q 719 1064 683 1071 q 772 1033 754 1057 q 729 961 761 996 q 719 947 726 957 q 708 929 711 938 q 871 934 774 928 q 1043 947 968 940 q 1142 957 1118 954 q 1171 978 1154 961 q 1192 997 1181 990 q 1229 1003 1204 1003 q 1282 969 1242 992 q 1349 925 1325 946 q 1378 871 1372 904 q 1293 800 1336 838 q 1217 737 1249 760 q 1150 697 1186 714 q 1190 652 1171 678 q 1216 610 1210 626 q 1210 594 1222 593 q 1128 582 1178 582 l 1079 583 q 1036 585 1064 585 q 982 576 999 585 q 955 542 974 572 q 918 481 936 513 q 872 410 879 417 q 950 418 903 414 q 981 422 969 419 q 1018 433 992 424 q 1083 457 1063 443 q 1114 471 1104 471 q 1147 464 1126 471 l 1147 464 m 457 699 q 439 642 461 686 q 383 546 417 597 q 393 417 393 515 q 390 249 393 368 q 386 75 386 160 q 393 -53 386 -15 q 396 -75 396 -64 q 376 -166 396 -118 q 328 -221 357 -214 q 286 -183 332 -225 q 239 -143 253 -158 q 264 178 264 -57 l 263 400 q 117 277 179 317 q -11 229 54 238 q 131 387 78 311 q 207 521 183 463 q 253 653 231 579 q 288 749 274 721 q 301 753 290 753 q 391 733 333 753 q 457 699 449 714 l 457 699 m 368 625 q 378 641 375 633 q 382 660 381 649 q 376 665 382 660 l 360 663 q 356 652 358 660 q 356 628 354 644 q 358 625 357 625 q 361 624 360 625 l 368 625 l 368 625 m 840 581 q 849 559 847 576 q 853 542 851 542 q 868 557 861 554 q 897 560 875 560 l 897 579 q 864 583 876 579 q 840 589 851 588 l 840 581 l 840 581 m 663 165 q 757 176 692 167 q 1038 201 985 203 q 1026 322 1038 265 q 949 319 1003 322 q 869 313 894 317 q 782 304 835 307 q 691 294 718 299 q 665 278 664 289 q 660 224 665 251 q 657 194 657 201 q 663 165 657 181 l 663 165 m 1022 -37 q 1029 86 1022 21 q 940 82 985 83 q 854 79 894 81 q 663 71 686 74 q 669 0 669 44 l 668 -61 q 767 -50 707 -58 q 950 -35 874 -35 q 1022 -37 969 -35 l 1022 -37 m 579 -81 l 579 -106 l 590 -106 l 590 -81 l 579 -81 z "},"岁":{"ha":1389,"x_min":78,"x_max":1313,"o":"m 1168 539 q 1213 513 1175 535 q 1279 463 1250 492 q 1308 408 1308 433 q 1300 382 1308 394 q 1117 131 1236 258 q 831 -91 997 3 q 474 -201 664 -185 q 382 -223 465 -211 q 203 -241 299 -235 q 78 -244 107 -247 q 516 -79 382 -137 q 679 17 650 -21 q 589 135 644 53 q 549 190 563 172 q 526 208 535 207 q 333 131 481 174 q 92 72 186 88 q 426 326 293 207 q 574 521 558 446 l 596 588 l 543 581 q 503 573 560 582 q 418 560 446 564 q 392 547 406 554 q 371 535 378 539 q 331 512 349 519 q 292 501 314 504 q 242 565 264 518 q 219 644 221 613 q 263 654 235 650 q 283 659 276 656 q 291 675 289 663 q 292 714 293 688 q 300 778 300 725 q 295 846 300 814 q 282 889 290 878 q 257 917 278 896 q 235 937 243 928 q 225 960 228 946 q 276 972 236 972 q 398 956 328 972 q 481 928 468 940 q 486 889 486 921 q 476 760 486 860 q 469 689 469 711 q 583 697 515 689 q 667 717 651 704 q 669 818 669 719 q 667 983 669 969 q 639 1015 661 1001 q 619 1032 626 1024 q 610 1056 611 1040 q 682 1067 628 1067 q 813 1049 749 1067 q 882 1006 878 1031 q 885 994 885 997 q 876 964 885 982 q 863 936 867 946 q 849 811 868 950 q 841 756 846 789 q 840 739 836 722 q 967 733 857 739 q 1085 726 1078 726 q 1094 771 1090 740 q 1097 838 1097 801 q 1064 986 1097 947 q 1111 1004 1069 1004 q 1292 969 1163 1004 q 1303 953 1294 964 q 1313 928 1311 943 q 1295 892 1300 913 q 1288 836 1290 871 q 1283 792 1288 815 l 1275 761 q 1232 644 1256 686 q 1157 597 1208 601 l 1131 608 q 1067 633 1094 626 q 997 609 1038 615 q 896 603 956 603 l 788 604 q 697 600 740 604 l 597 588 q 672 570 618 586 q 769 534 725 554 q 814 500 813 514 q 793 481 803 489 q 776 465 783 472 l 818 465 l 1078 510 q 1106 521 1090 514 q 1135 533 1122 529 q 1168 539 1149 538 l 1168 539 m 915 207 q 1051 396 997 297 q 876 379 1046 394 q 711 365 706 364 q 693 357 697 361 q 688 344 689 353 q 683 333 686 338 q 669 322 679 328 l 575 232 q 689 195 601 228 q 785 151 776 163 q 790 138 790 147 q 784 110 790 126 q 775 86 778 93 l 915 207 l 915 207 z "},"工":{"ha":1389,"x_min":76,"x_max":1318,"o":"m 1204 60 q 1282 -33 1246 25 q 1318 -126 1318 -92 q 1306 -154 1318 -146 q 1278 -158 1297 -158 q 1211 -151 1250 -158 q 1151 -139 1172 -144 q 1005 -123 1103 -129 q 799 -117 907 -117 q 465 -142 557 -117 q 321 -176 410 -158 q 175 -194 232 -193 q 108 -101 139 -160 q 76 1 76 -42 q 90 43 76 29 q 214 6 138 15 q 406 -4 290 -4 q 522 -3 482 -4 q 538 6 531 1 q 551 16 546 11 q 565 31 557 21 q 564 93 564 50 q 572 300 564 153 q 581 533 581 456 q 553 757 581 685 l 494 750 q 239 713 265 724 q 208 760 233 722 q 170 832 182 799 q 158 897 158 865 q 161 931 158 919 q 394 894 196 894 q 698 911 533 894 q 947 949 863 928 l 996 963 q 1114 986 1067 986 q 1140 985 1131 986 q 1167 949 1146 978 q 1204 890 1189 919 q 1219 839 1219 860 q 1131 790 1219 789 q 1058 801 1111 801 l 1014 801 q 880 799 949 801 q 768 794 811 797 q 763 678 763 749 q 767 497 763 604 q 775 101 775 292 l 775 24 q 842 21 803 22 q 904 19 882 19 l 1033 15 q 1204 60 1138 47 l 1204 60 z "},"库":{"ha":1389,"x_min":49,"x_max":1336,"o":"m 240 817 q 208 840 228 817 q 172 893 188 863 q 156 949 157 924 q 210 919 174 928 q 308 910 247 910 q 658 946 425 910 q 583 1026 614 990 q 544 1086 551 1063 q 569 1089 558 1089 q 692 1076 619 1089 q 772 1061 765 1063 q 775 1050 775 1058 q 758 999 775 1035 q 749 976 757 994 q 740 944 740 957 q 856 947 797 943 q 1000 958 914 950 q 1176 972 1104 971 q 1274 821 1275 917 q 1178 822 1225 821 q 1088 825 1131 824 q 744 833 888 833 q 390 819 561 833 q 296 811 357 811 q 240 817 256 811 l 240 817 m 318 560 q 322 485 322 525 q 283 201 322 357 q 180 -69 243 46 q 49 -200 117 -185 q 107 -4 78 -146 q 155 297 136 138 q 174 558 174 457 q 171 621 174 588 q 160 693 168 646 q 153 737 158 701 q 147 808 147 772 q 169 814 154 814 q 236 797 196 814 q 308 758 276 781 q 344 722 340 736 q 344 699 347 717 q 340 675 342 682 q 335 629 332 642 l 318 560 l 318 560 m 1276 144 q 1295 118 1288 133 q 1313 71 1303 103 l 1336 3 q 1152 11 1269 4 q 994 22 1035 18 q 983 19 990 18 q 971 19 975 19 q 943 6 954 19 l 946 -24 q 951 -101 951 -68 q 949 -136 951 -126 q 901 -215 933 -185 q 849 -247 868 -244 q 822 -220 844 -246 q 785 -167 800 -194 q 776 -125 769 -139 q 775 -69 776 -85 q 774 -43 775 -60 q 775 3 774 -26 q 556 -17 722 3 q 338 -37 400 -36 q 307 12 333 -31 q 264 101 281 54 q 642 103 571 101 q 789 113 713 104 l 785 172 q 782 229 782 206 l 699 231 q 611 219 644 231 q 599 222 603 222 q 560 211 588 222 q 535 202 556 210 q 489 194 514 194 q 468 196 475 194 q 443 235 461 214 q 424 260 431 249 q 418 296 418 272 q 502 404 469 328 q 549 565 535 481 q 469 549 514 551 q 419 547 425 547 q 382 610 392 574 q 367 694 372 646 q 438 679 413 682 q 506 676 463 676 q 603 674 558 676 q 615 800 603 726 q 694 817 636 817 q 794 806 744 817 q 849 785 844 796 q 811 738 832 763 l 781 697 q 1057 732 903 703 q 1176 749 1161 747 q 1199 726 1199 726 q 1245 674 1229 697 q 1263 615 1261 650 q 1125 600 1196 600 q 1046 594 1060 596 q 868 589 971 594 q 738 583 779 583 q 669 451 704 524 q 611 322 633 379 q 681 332 640 331 q 729 333 721 333 q 762 335 740 333 q 794 338 783 336 l 794 457 q 779 514 794 486 q 772 529 778 517 q 765 557 767 542 q 792 561 776 561 q 867 547 824 561 q 940 512 910 532 q 964 476 969 492 l 944 365 q 1042 385 965 374 q 1142 396 1119 396 q 1183 379 1160 397 q 1222 333 1206 361 q 1238 285 1238 306 q 1232 265 1238 272 l 1167 265 q 1042 263 1088 265 q 935 253 996 261 l 939 135 q 1003 131 988 131 q 1056 136 1022 131 l 1107 143 q 1139 147 1122 144 q 1164 151 1156 150 q 1222 158 1199 158 q 1276 144 1254 158 l 1276 144 m 535 276 q 526 285 526 285 l 503 285 q 504 272 503 274 q 513 269 506 269 q 526 267 521 268 l 535 276 l 535 276 z "},"成":{"ha":1389,"x_min":56,"x_max":1314,"o":"m 1124 899 q 1083 878 1099 878 q 1061 889 1071 878 q 1033 928 1051 900 q 953 1033 992 992 q 993 1038 974 1038 q 1030 1035 1010 1038 q 1057 1031 1050 1032 q 1080 1026 1064 1029 q 1108 1024 1096 1024 q 1131 985 1121 1008 q 1142 940 1142 961 q 1124 899 1142 913 l 1124 899 m 1297 183 q 1310 -74 1296 51 q 1314 -128 1314 -110 q 1308 -159 1314 -147 q 1286 -182 1301 -171 q 1228 -221 1274 -221 q 1155 -203 1194 -221 q 1096 -171 1115 -186 q 997 -48 1067 -150 q 924 57 926 54 q 776 -92 863 -32 q 585 -176 689 -153 q 715 -47 643 -131 q 825 115 786 38 q 842 144 831 126 q 860 179 853 163 q 867 213 867 196 q 857 246 867 231 q 829 331 857 218 q 774 579 801 443 q 744 750 746 715 q 647 746 706 751 q 554 742 568 742 q 515 735 538 738 q 485 732 493 733 q 419 724 446 729 q 375 706 392 718 q 357 597 357 672 l 357 560 q 357 485 360 521 q 437 499 371 486 q 514 515 503 511 q 533 533 522 521 q 552 551 543 544 q 576 560 561 557 q 620 553 592 567 q 675 517 649 539 q 707 482 701 496 l 707 425 q 691 384 696 401 q 683 347 686 367 q 678 317 679 326 l 658 217 q 635 94 646 142 q 571 -56 607 -28 q 529 -74 549 -74 q 483 -49 506 -74 q 426 26 460 -25 q 347 132 379 94 q 378 136 358 136 l 426 135 q 490 151 476 135 q 529 253 522 197 q 536 419 536 308 q 497 396 518 403 q 446 389 476 389 q 361 394 431 389 q 283 125 333 250 q 172 -86 232 0 q 56 -204 113 -172 l 56 -197 q 116 0 81 -165 q 178 366 151 165 q 204 697 204 567 q 199 786 204 739 q 185 824 196 797 q 172 853 176 840 q 168 881 168 865 q 176 888 172 883 q 185 894 181 892 q 200 896 190 896 q 272 840 222 869 q 357 810 322 811 q 389 821 371 818 q 411 824 407 824 q 453 832 435 826 q 660 840 531 838 q 735 842 708 840 q 729 872 733 861 q 717 894 725 883 q 696 940 703 917 q 654 958 685 947 q 601 983 613 974 q 699 1025 657 1013 q 782 1038 740 1038 q 835 1033 807 1038 q 869 854 876 913 q 943 849 901 849 q 1085 862 1011 849 q 1214 892 1158 875 q 1228 896 1221 896 q 1274 849 1254 896 q 1293 761 1293 803 q 1288 736 1293 742 q 1163 740 1253 736 q 943 747 978 747 q 888 743 894 747 q 901 688 892 729 q 915 621 910 646 q 924 582 925 564 q 940 482 940 499 q 946 464 940 478 q 968 399 951 450 q 982 448 972 421 q 1003 499 992 475 q 1031 565 1021 536 q 1040 624 1040 593 q 1035 665 1040 647 q 1032 688 1032 682 q 1044 725 1032 711 q 1076 742 1057 739 q 1221 617 1142 651 q 1192 535 1221 599 q 1111 369 1163 472 q 1038 208 1040 225 q 1061 173 1049 194 q 1078 143 1074 151 q 1122 73 1104 97 q 1157 44 1139 49 q 1201 65 1171 39 q 1260 128 1231 92 q 1297 183 1289 164 l 1297 183 m 1201 -65 q 1196 -47 1200 -64 q 1146 -57 1178 -49 l 1146 -71 q 1170 -92 1154 -78 q 1201 -114 1186 -107 l 1201 -65 l 1201 -65 z "},"户":{"ha":1389,"x_min":28,"x_max":1363,"o":"m 1335 786 q 1308 666 1333 778 q 1282 508 1282 554 q 1283 497 1282 499 q 1286 468 1283 488 l 1288 438 q 1279 406 1288 417 q 1249 393 1271 394 q 1164 411 1228 394 q 1050 433 1083 433 q 1028 431 1042 433 q 925 439 999 439 q 715 430 838 439 q 499 408 593 421 q 399 386 406 394 q 382 294 390 349 q 333 69 361 165 q 231 -114 304 -26 q 28 -236 158 -201 q 199 438 199 -14 q 188 681 199 547 q 154 746 176 714 q 135 784 140 767 q 129 839 129 801 q 165 861 144 856 q 200 867 186 867 q 326 851 260 867 q 368 843 332 850 q 456 836 404 836 q 515 839 471 836 q 549 844 531 843 q 572 846 567 846 q 619 852 601 847 q 649 872 636 857 q 617 929 646 882 q 569 1008 588 974 q 538 1082 550 1042 q 656 1066 592 1082 q 763 1025 719 1050 q 806 974 806 1000 q 801 958 806 967 q 776 914 799 944 q 751 867 754 881 q 946 881 922 878 l 1100 888 q 1125 903 1108 890 q 1160 922 1146 918 q 1174 924 1164 924 q 1245 906 1203 924 q 1323 865 1288 888 q 1363 831 1358 843 l 1335 786 l 1335 786 m 1075 567 q 1094 618 1088 586 q 1101 685 1101 650 q 1086 772 1101 746 q 672 756 888 772 q 381 726 456 740 l 381 692 q 402 630 399 665 q 404 540 406 594 q 485 531 424 531 q 624 538 546 531 q 717 546 703 544 q 775 551 769 551 q 975 561 836 553 q 1075 567 1003 564 l 1075 567 z "},"料":{"ha":1389,"x_min":36,"x_max":1368,"o":"m 526 592 q 600 601 572 601 q 638 597 619 601 q 689 493 689 524 q 676 472 689 479 q 663 469 672 469 q 636 476 653 469 q 611 485 619 483 q 596 486 607 486 q 515 474 563 486 q 458 453 467 463 q 522 401 488 422 q 607 354 556 381 q 634 341 617 350 q 660 325 651 332 q 668 288 668 310 q 665 254 668 276 q 661 218 661 236 q 628 178 639 189 q 601 168 617 168 q 585 171 596 168 q 532 268 571 190 q 469 379 485 363 q 472 319 472 367 l 471 150 l 471 101 l 475 19 q 479 -83 479 -39 q 472 -151 479 -132 q 462 -178 468 -160 q 445 -208 456 -197 q 418 -219 435 -218 q 378 -185 410 -212 q 339 -147 347 -157 q 332 -128 333 -142 q 331 -81 331 -114 l 333 172 q 233 48 304 124 q 101 -80 163 -28 q 36 -117 39 -132 l 119 28 q 240 247 201 168 q 307 428 278 325 q 131 394 267 399 q 58 533 89 460 q 114 528 78 533 q 185 522 156 522 q 333 543 249 522 q 335 615 335 549 q 331 925 335 708 l 331 968 q 283 1031 318 996 q 328 1051 288 1051 q 424 1033 369 1051 q 493 997 479 1014 q 499 969 499 988 q 490 911 499 943 q 479 871 481 879 q 474 768 474 817 q 476 689 474 736 q 478 646 476 678 q 478 583 481 614 l 526 592 l 526 592 m 1272 401 q 1318 357 1282 385 q 1354 324 1342 339 q 1368 293 1367 310 q 1315 266 1349 272 q 1224 257 1282 260 q 1129 247 1157 254 q 1125 156 1128 243 q 1122 25 1122 69 q 1125 -99 1125 -75 q 1120 -199 1125 -167 q 1104 -251 1115 -231 q 983 -179 1051 -251 q 961 -160 969 -165 l 969 -117 q 987 -13 985 -39 q 990 73 989 13 q 992 194 990 133 q 926 174 972 183 q 818 133 856 157 q 774 150 785 142 q 749 178 763 158 q 733 200 746 181 q 690 247 719 219 l 722 253 q 865 283 790 263 q 992 313 938 301 l 993 453 q 996 611 996 558 q 968 961 996 842 q 942 989 954 969 q 914 1021 925 1011 q 990 1043 942 1043 q 1087 1023 1039 1043 q 1156 972 1135 1003 q 1144 887 1147 928 q 1138 781 1140 846 q 1129 622 1136 719 l 1129 585 q 1135 365 1132 425 q 1174 387 1138 365 q 1243 408 1211 408 q 1272 401 1263 408 l 1272 401 m 611 903 q 614 919 614 914 q 611 936 614 926 q 608 951 608 946 q 615 972 608 963 q 708 927 668 950 q 753 881 749 904 q 737 841 754 863 q 718 817 719 819 q 607 707 689 781 q 499 631 525 633 q 548 742 508 644 q 611 903 588 840 l 611 903 m 1081 936 q 1067 947 1075 940 q 1050 958 1060 954 q 1063 937 1058 946 q 1072 921 1068 928 l 1081 921 l 1081 936 l 1081 936 m 431 922 q 419 928 428 925 q 422 919 421 921 q 431 915 424 918 l 431 922 l 431 922 m 651 860 q 647 853 649 857 q 642 843 644 849 l 651 840 q 656 846 651 843 q 661 850 660 849 l 663 861 q 656 861 658 861 q 651 860 653 861 l 651 860 m 271 603 q 263 597 268 601 q 252 592 258 593 q 236 590 246 590 q 206 628 228 604 q 175 664 185 653 q 57 808 90 754 q 203 782 124 803 q 286 729 282 761 q 290 704 290 719 q 281 641 290 675 q 271 603 272 607 l 271 603 m 906 758 q 940 690 940 740 q 936 647 940 672 q 931 613 932 622 q 915 604 919 606 q 896 604 910 603 q 791 690 858 632 q 690 782 724 749 q 724 789 704 789 q 777 783 744 789 q 818 775 810 776 q 906 758 882 761 l 906 758 m 914 354 q 840 419 894 376 q 761 488 793 458 q 693 563 729 517 q 854 540 757 561 q 953 497 951 519 q 956 472 956 492 q 944 402 956 439 q 914 354 933 365 l 914 354 m 846 515 q 841 517 844 515 q 832 519 838 518 q 839 514 838 515 q 846 513 840 513 l 846 515 l 846 515 m 843 453 q 849 440 844 449 l 856 436 l 856 449 l 851 449 l 843 453 l 843 453 m 585 261 q 590 258 589 258 q 593 261 592 257 l 585 261 l 585 261 m 1060 874 l 1060 865 l 1064 865 l 1064 874 l 1060 874 z "},"时":{"ha":1389,"x_min":92,"x_max":1374,"o":"m 1175 686 q 1170 308 1175 367 q 1165 235 1165 249 q 1169 158 1165 224 l 1179 11 q 1168 -139 1182 -72 q 1118 -224 1154 -206 q 1094 -231 1110 -231 q 1066 -224 1081 -231 q 1040 -210 1051 -218 q 833 -26 992 -169 q 976 -8 943 -10 l 1004 21 q 1018 429 1018 46 l 1018 686 q 954 670 990 676 q 878 660 918 664 l 818 651 q 775 634 807 647 q 719 614 743 621 q 678 607 696 607 q 619 643 639 607 q 600 765 599 679 q 642 756 611 763 q 693 749 674 749 q 760 757 713 749 q 893 778 819 769 q 938 784 900 779 q 1007 799 976 789 q 1010 843 1010 818 q 1004 886 1010 861 q 996 935 997 919 q 992 957 992 951 l 992 969 q 988 997 992 983 q 969 1021 985 1006 q 953 1038 960 1029 q 944 1064 947 1047 q 1057 1056 1003 1056 l 1108 1057 q 1153 1048 1136 1057 q 1199 1010 1171 1039 q 1191 969 1199 990 q 1176 935 1183 949 q 1167 925 1168 921 l 1164 886 q 1165 859 1164 874 q 1167 821 1167 844 q 1221 843 1182 833 q 1288 853 1260 853 q 1308 850 1304 853 q 1339 786 1322 817 q 1363 735 1353 760 q 1374 697 1374 710 q 1350 683 1374 679 l 1167 699 l 1175 686 l 1175 686 m 117 188 q 119 471 117 274 l 124 761 q 108 826 122 776 q 92 921 93 885 q 126 911 96 924 q 189 871 156 899 q 242 803 222 843 q 297 824 258 813 q 344 839 335 836 q 393 854 389 851 q 417 883 400 861 q 443 917 436 911 q 458 918 451 917 q 471 919 465 919 q 486 914 481 919 q 578 828 556 885 q 581 765 581 825 q 554 -6 581 582 q 532 -73 553 -39 q 487 -130 511 -107 q 454 -150 463 -153 q 430 -102 449 -139 q 400 -32 411 -65 l 326 -53 q 274 -69 297 -64 q 259 -111 274 -87 q 226 -152 244 -135 q 197 -169 208 -169 q 156 -106 175 -143 q 126 -32 136 -69 q 115 69 115 0 l 117 188 l 117 188 m 251 533 q 253 464 251 482 q 293 479 271 468 q 364 501 340 501 q 388 494 379 501 q 405 477 397 488 q 418 460 413 467 q 425 604 425 536 q 393 747 425 747 q 335 725 374 736 q 287 708 306 717 q 253 682 268 700 l 251 533 l 251 533 m 831 179 q 764 282 824 189 q 618 503 667 438 q 687 483 621 506 q 818 426 753 460 q 908 358 883 393 q 890 242 911 297 q 831 179 868 186 l 831 179 m 414 256 q 417 289 417 281 q 422 350 422 344 q 418 365 422 364 l 375 364 q 322 349 360 354 q 264 328 281 343 q 261 300 261 321 q 272 144 272 269 q 274 21 272 46 l 282 21 q 350 53 292 28 q 421 86 418 81 l 414 256 l 414 256 m 1042 -147 q 1044 -126 1044 -143 q 1043 -104 1043 -110 l 1042 -100 l 1029 -100 q 1020 -109 1025 -104 q 1013 -119 1015 -114 q 1007 -136 1010 -125 q 1020 -146 1013 -139 q 1042 -156 1028 -153 l 1042 -147 l 1042 -147 z "},"月":{"ha":1389,"x_min":125,"x_max":1175,"o":"m 125 -221 q 254 83 213 -126 q 296 524 296 293 q 276 799 296 689 q 267 869 272 822 q 264 904 267 882 q 247 947 261 921 q 231 987 236 971 q 228 1019 226 1003 q 243 1021 232 1021 q 353 993 282 1021 q 450 944 425 965 q 599 956 481 950 q 714 964 614 957 q 836 979 814 971 q 917 994 888 981 q 974 1032 946 1008 q 1006 1055 992 1047 q 1039 1063 1019 1063 q 1074 1057 1056 1063 q 1118 1028 1092 1054 q 1157 1001 1147 1006 q 1175 926 1175 990 q 1167 820 1175 881 q 1158 750 1160 760 q 1150 679 1153 710 q 1153 397 1150 564 q 1156 181 1156 250 q 1154 110 1154 156 q 1145 -40 1151 13 q 1116 -140 1139 -92 q 1043 -226 1093 -187 q 951 -190 1022 -225 q 811 -115 881 -154 q 736 -67 742 -75 q 874 -26 788 -42 q 924 -15 910 -19 q 935 1 938 -10 q 960 186 953 28 l 964 247 q 854 241 939 244 q 733 236 769 238 q 436 222 506 231 q 381 22 426 118 q 267 -140 335 -75 q 125 -221 199 -206 l 125 -221 m 494 825 q 486 754 486 811 q 489 703 486 726 q 497 674 492 681 q 547 672 499 672 q 967 700 733 672 q 965 726 965 711 q 964 756 965 740 q 957 872 961 854 q 683 844 926 865 q 494 825 504 829 l 494 825 m 494 533 q 472 353 499 507 q 731 363 557 353 q 958 381 906 374 q 974 463 974 401 q 971 526 974 488 l 969 567 q 808 553 881 558 q 494 533 735 547 l 494 533 m 897 -82 l 908 -82 l 908 -74 l 897 -74 l 897 -82 z "},"楼":{"ha":1389,"x_min":7,"x_max":1343,"o":"m 806 725 q 808 824 808 789 q 793 963 808 908 q 781 990 789 979 q 765 1010 774 1001 q 748 1033 754 1022 q 740 1065 742 1044 q 775 1067 750 1067 q 906 1051 846 1067 q 968 1000 967 1035 q 945 929 950 969 q 940 826 940 889 l 939 779 l 938 736 q 975 740 961 740 l 1011 739 q 1092 761 1043 739 q 1150 781 1125 772 q 1210 808 1175 790 q 1253 767 1219 794 q 1288 737 1274 751 q 1311 703 1303 722 q 1315 679 1315 689 q 1299 658 1315 663 q 1244 653 1283 653 q 1131 656 1224 656 q 950 647 975 656 q 1053 618 981 635 q 1180 577 1138 597 q 1222 518 1222 557 q 1218 494 1222 507 q 1200 458 1215 492 q 1169 404 1176 406 q 1057 497 1133 433 q 946 590 981 560 q 942 552 943 583 q 940 510 940 521 q 933 408 938 440 q 919 392 929 376 l 806 413 q 806 440 803 417 q 810 472 808 464 q 814 524 818 524 q 490 379 694 422 l 518 399 q 668 513 606 460 q 761 622 731 565 q 656 578 710 597 q 579 558 601 560 q 561 581 568 568 q 549 607 554 593 q 511 679 535 643 q 535 682 514 682 q 569 681 551 682 q 596 681 586 679 q 746 701 693 692 q 806 725 799 711 l 806 725 m 453 389 q 423 440 438 406 q 390 528 408 475 q 369 585 379 563 q 372 392 369 525 q 375 97 375 183 q 369 -68 375 -31 l 367 -100 q 357 -181 364 -153 q 332 -208 350 -208 q 280 -177 315 -208 q 206 -100 244 -146 q 244 -37 229 -71 q 258 25 260 -4 q 259 81 257 44 q 261 139 261 118 q 264 276 264 228 q 256 390 264 358 q 224 306 254 367 q 138 179 193 246 q 7 69 82 113 q 101 253 46 132 q 197 493 156 374 q 246 669 239 613 l 217 665 q 143 657 172 657 q 113 660 122 657 q 96 678 108 665 q 75 713 83 692 q 63 767 67 735 q 97 769 75 768 q 131 771 119 771 q 213 776 185 772 q 249 796 242 781 l 246 886 q 236 935 243 917 q 228 971 231 956 l 199 997 q 234 1043 192 1025 q 326 1061 276 1061 q 393 1038 383 1061 q 397 1015 397 1029 q 392 974 397 999 q 386 936 388 949 l 389 883 q 387 855 389 871 q 383 814 385 839 q 398 815 389 815 q 414 814 407 814 q 443 813 424 813 q 461 814 457 813 q 490 790 483 804 q 504 740 497 775 q 510 706 507 718 l 461 707 q 418 708 447 708 q 368 704 393 708 l 371 649 l 410 622 q 493 565 463 590 q 524 522 524 540 q 513 474 524 510 q 487 412 503 439 q 453 389 471 385 l 453 389 m 971 765 q 1036 892 996 799 q 1072 1014 1076 985 l 1106 1001 q 1142 986 1133 992 q 1164 963 1150 981 q 1190 932 1178 946 q 1158 871 1189 894 q 1076 822 1128 847 l 1044 806 q 1022 790 1039 799 q 999 779 1004 782 q 971 765 986 775 l 971 765 m 621 803 q 606 830 618 817 q 574 864 594 843 q 533 908 549 889 q 506 949 517 926 q 642 932 567 949 q 735 886 717 915 q 746 853 746 871 q 728 783 746 832 q 715 747 719 765 q 707 741 714 746 q 695 735 700 736 q 688 738 690 735 q 621 803 643 772 l 621 803 m 964 758 q 971 765 964 761 q 964 758 967 758 l 964 758 m 204 739 q 223 709 211 725 q 240 693 235 693 q 246 706 246 693 l 246 721 l 239 739 l 204 739 l 204 739 m 1115 253 q 1096 190 1104 235 l 1088 154 l 1075 125 q 1038 32 1043 46 l 1092 24 q 1232 -7 1179 11 q 1290 -67 1285 -25 q 1297 -110 1292 -79 q 1303 -162 1303 -142 q 1258 -221 1303 -221 q 1165 -165 1232 -197 q 1026 -108 1099 -132 q 910 -85 954 -85 q 820 -156 881 -125 q 694 -200 760 -186 q 592 -219 699 -210 q 431 -225 486 -228 q 635 -140 525 -199 q 790 -7 746 -81 q 712 34 742 25 q 654 44 682 43 q 629 52 636 46 q 615 88 622 58 q 653 147 622 103 q 693 212 679 186 q 700 247 707 238 q 594 218 678 240 q 508 196 532 203 q 446 268 475 226 q 415 339 417 310 q 483 304 450 304 q 624 313 532 304 q 726 328 715 321 q 738 368 738 344 q 735 394 738 378 q 732 424 733 411 q 775 413 758 421 q 821 388 792 406 q 875 358 854 365 l 876 340 q 911 338 896 338 q 1033 349 947 338 q 1151 358 1119 360 l 1182 368 q 1263 388 1236 386 q 1290 356 1275 371 q 1330 306 1317 328 q 1343 247 1343 283 q 1331 232 1339 242 q 1314 217 1324 222 q 1289 210 1304 211 q 1199 240 1276 219 q 1115 253 1122 261 l 1115 253 m 869 67 q 907 133 882 93 q 946 204 932 175 q 968 267 960 233 q 938 269 951 269 l 892 268 q 851 265 878 265 q 815 165 835 201 q 746 94 794 129 q 804 79 768 94 q 843 67 829 71 q 869 67 857 64 l 869 67 m 779 11 q 783 8 781 8 q 789 7 785 8 q 779 11 783 10 l 779 11 m 968 -28 q 958 -29 964 -29 q 949 -31 953 -29 l 949 -42 l 958 -42 q 962 -44 961 -43 q 964 -42 963 -44 l 968 -28 l 968 -28 z "},"水":{"ha":1389,"x_min":56,"x_max":1363,"o":"m 1215 164 q 1264 132 1231 149 q 1363 69 1319 104 q 1318 40 1354 65 q 1194 -36 1250 -7 q 1088 -67 1139 -65 q 994 61 1039 -14 q 896 240 950 136 l 867 296 q 834 397 853 322 q 803 542 815 471 q 800 465 800 531 q 801 317 800 374 l 803 99 q 789 -151 803 -137 q 732 -229 768 -200 q 657 -258 696 -258 q 583 -221 615 -258 q 553 -167 571 -189 q 503 -118 535 -146 q 421 -31 449 -69 q 488 -37 440 -37 q 558 -35 511 -37 l 614 -33 q 621 201 614 -32 l 626 354 l 635 783 l 636 864 q 626 957 636 925 q 605 991 619 978 q 564 1018 590 1004 q 531 1039 542 1031 q 519 1061 521 1047 q 619 1082 547 1082 q 778 1056 703 1082 q 853 990 853 1029 q 823 885 840 968 q 806 742 806 801 q 811 693 806 710 q 831 649 824 672 q 840 621 839 625 q 863 560 850 586 q 1003 733 963 664 q 1043 878 1043 803 l 1078 878 q 1139 843 1094 863 q 1224 792 1194 815 q 1256 735 1254 768 q 1147 638 1208 676 q 983 551 1085 599 q 896 510 940 533 q 1042 315 967 397 q 1215 164 1117 232 l 1215 164 m 1115 788 q 1092 735 1111 778 l 1097 735 q 1114 751 1104 742 q 1131 767 1124 761 l 1131 788 l 1115 788 l 1115 788 m 481 707 q 549 688 526 703 q 603 640 572 672 q 514 350 590 515 q 316 60 438 185 q 56 -75 194 -64 q 170 38 110 -53 q 322 296 231 128 l 350 347 q 411 529 392 425 q 390 546 419 546 q 247 518 356 546 q 158 498 186 503 q 133 503 129 493 q 75 640 75 597 q 86 665 75 658 q 115 657 93 667 q 182 640 150 638 l 213 643 q 371 664 314 653 q 481 707 428 675 l 481 707 m 461 635 q 481 643 468 640 q 500 647 493 646 q 490 655 493 651 q 483 661 488 658 q 453 643 475 653 l 447 636 l 461 635 l 461 635 m 643 -139 q 644 -135 643 -136 q 643 -133 646 -135 q 625 -111 638 -118 q 592 -101 613 -104 l 592 -119 q 611 -135 599 -125 q 643 -150 624 -146 l 643 -139 l 643 -139 z "},"流":{"ha":1389,"x_min":44,"x_max":1386,"o":"m 479 528 q 521 549 490 535 q 569 572 557 564 q 665 775 603 596 q 569 747 628 763 q 503 732 511 732 q 468 785 481 768 q 418 864 443 822 l 432 869 q 493 865 436 865 q 615 871 551 865 q 715 889 678 876 q 771 897 718 889 q 804 904 793 903 q 749 952 772 926 q 700 1014 726 978 q 654 1071 669 1056 q 707 1081 678 1081 q 739 1079 724 1081 q 767 1076 754 1078 q 851 1069 815 1071 q 858 1011 858 1042 q 846 913 858 978 q 979 923 893 917 q 1056 928 1065 929 q 1108 944 1085 933 q 1190 964 1150 963 l 1214 939 q 1265 875 1250 899 q 1281 819 1281 851 q 1278 792 1281 801 l 1240 799 q 1194 806 1235 800 q 1096 814 1154 813 q 1030 808 1100 813 q 924 800 960 803 q 883 797 896 799 q 865 796 869 796 q 828 716 846 744 q 786 656 811 688 q 738 582 756 614 q 1083 608 760 592 q 1072 645 1079 631 q 1050 681 1064 660 q 1007 763 1021 721 q 1151 701 1086 749 q 1274 596 1217 653 q 1283 568 1283 582 q 1274 535 1283 551 q 1244 490 1265 518 l 1213 442 q 1174 473 1188 458 q 1146 510 1161 488 q 1131 529 1138 524 q 1115 536 1125 535 q 1016 528 1124 544 q 799 490 908 513 q 681 457 689 467 l 650 440 q 631 434 643 436 q 601 428 619 432 q 479 528 576 407 l 479 528 m 121 1013 q 303 974 238 1008 q 392 896 368 939 q 378 850 390 894 q 346 753 351 753 q 257 834 315 774 q 156 949 199 894 q 121 1013 113 1003 l 121 1013 m 542 811 q 507 814 519 814 l 507 796 q 538 786 522 789 l 547 806 l 542 811 l 542 811 m 53 661 q 248 631 182 654 q 336 571 314 608 q 322 524 335 569 q 288 424 293 424 q 194 501 256 446 q 89 605 133 557 q 53 661 44 653 l 53 661 m 1310 64 q 1344 -36 1325 26 q 1360 -81 1347 -44 q 1386 -140 1372 -118 q 1358 -199 1371 -193 q 1322 -215 1342 -211 q 1271 -222 1303 -219 q 1231 -228 1243 -225 q 1164 -233 1181 -233 q 1042 -197 1078 -233 q 989 -94 1006 -161 q 994 28 989 -75 q 1004 256 1004 190 q 979 425 1004 393 q 1032 432 1004 432 q 1125 418 1078 432 q 1178 392 1172 404 q 1147 260 1160 356 q 1133 71 1133 164 q 1143 -50 1133 -3 q 1172 -99 1153 -97 l 1254 -96 q 1310 64 1289 -24 l 1310 64 m 400 424 q 378 255 390 328 q 343 72 365 182 q 258 -164 318 -136 q 244 -165 256 -165 q 179 -153 218 -165 q 108 -114 140 -140 q 67 -49 75 -87 q 78 -50 71 -50 q 150 4 114 -50 q 232 149 186 58 l 247 179 l 238 164 l 400 424 l 400 424 m 861 394 q 915 374 903 388 q 926 329 926 361 l 925 286 q 914 36 925 211 q 906 -158 906 -117 q 878 -227 894 -200 q 846 -254 863 -254 q 819 -231 829 -237 q 775 -185 790 -206 q 758 -135 760 -164 q 785 285 764 -124 l 786 321 q 776 338 783 331 q 767 347 768 346 q 738 389 743 368 l 861 394 l 861 394 m 703 308 q 685 264 690 290 q 674 185 679 238 q 669 145 672 176 q 658 93 665 114 q 606 -67 654 6 q 479 -178 557 -139 q 313 -211 401 -218 q 422 -128 372 -196 q 501 34 472 -61 q 531 224 531 129 q 504 379 531 313 q 642 367 583 379 q 703 308 700 354 l 703 308 z "},"物":{"ha":1389,"x_min":50,"x_max":1353,"o":"m 1353 699 q 1344 365 1353 513 q 1308 101 1335 217 q 1271 -50 1292 26 q 1260 -100 1263 -81 q 1258 -143 1258 -119 q 1250 -179 1258 -165 q 1210 -217 1242 -193 q 1179 -228 1196 -228 q 1097 -194 1143 -228 q 990 -104 1051 -160 q 921 -50 932 -51 q 971 -43 954 -44 q 1053 -25 1025 -36 q 1093 19 1081 -14 q 1149 256 1124 69 q 1175 604 1175 443 q 1168 729 1175 674 q 1155 735 1163 731 q 1121 739 1147 740 q 1125 672 1125 708 q 1039 299 1125 508 q 828 -62 953 89 q 600 -218 704 -214 q 765 21 682 -129 q 911 349 849 171 q 992 697 974 528 q 963 693 978 699 q 939 681 949 688 q 931 669 929 674 q 906 534 935 607 q 875 454 878 461 q 750 216 794 292 q 665 104 706 140 q 568 57 625 68 q 662 264 610 129 q 749 526 714 399 q 778 711 783 653 l 751 711 q 661 611 719 663 q 564 560 603 560 q 599 615 569 571 q 642 688 633 664 q 718 860 679 746 q 764 1046 757 975 q 744 1057 749 1050 q 739 1082 740 1064 q 769 1089 753 1089 q 842 1074 800 1089 q 918 1037 885 1058 q 957 997 951 1015 q 963 963 963 990 q 868 849 906 896 q 828 783 831 801 q 857 782 838 782 q 968 798 907 782 q 1103 839 1029 814 q 1168 860 1154 857 q 1200 879 1181 865 q 1232 899 1218 892 q 1265 908 1246 906 q 1319 858 1293 886 q 1353 819 1344 829 l 1353 699 l 1353 699 m 633 485 q 644 478 644 488 q 617 422 644 463 q 552 340 590 382 q 482 278 514 299 l 482 139 q 481 54 482 74 l 481 17 q 482 -53 481 -21 q 469 -183 482 -129 q 417 -243 457 -236 q 373 -207 399 -235 q 331 -151 347 -179 q 344 -36 331 -106 q 351 6 350 -8 q 354 50 354 25 q 350 94 354 72 q 343 156 344 124 q 178 17 257 28 q 102 102 138 49 q 65 204 67 156 q 73 212 68 207 q 92 219 78 217 q 107 207 96 213 q 129 201 118 201 q 144 204 133 201 q 223 240 174 214 q 311 297 272 267 q 351 350 350 326 q 361 488 361 365 q 359 582 361 538 q 354 633 357 626 q 319 620 343 629 q 276 601 294 611 q 251 624 271 614 q 219 631 231 633 q 140 537 207 614 q 50 433 74 460 q 144 786 144 782 q 156 838 147 808 q 165 901 165 879 q 144 972 165 935 l 207 949 q 303 906 274 925 q 332 850 332 886 q 274 715 332 803 q 306 722 261 710 q 361 736 351 733 q 349 921 361 819 q 318 1047 336 1022 q 379 1061 340 1061 q 477 1040 429 1061 q 529 988 525 1018 q 503 909 508 960 q 499 782 499 858 q 533 789 511 785 q 568 793 556 793 q 603 763 599 793 q 606 725 603 742 q 610 700 610 708 q 594 674 610 686 q 504 679 528 679 l 499 414 l 553 443 q 618 477 586 460 q 633 485 650 494 l 633 485 m 857 975 q 850 949 851 967 q 847 922 849 931 l 853 922 q 861 935 856 928 q 869 946 867 942 l 869 983 q 861 981 864 982 q 857 975 858 979 l 857 975 m 1250 707 q 1253 717 1253 711 q 1250 733 1253 719 q 1222 754 1242 743 q 1235 681 1224 735 l 1240 650 l 1250 650 l 1250 707 l 1250 707 z "},"用":{"ha":1389,"x_min":101,"x_max":1235,"o":"m 1235 950 q 1207 841 1214 918 q 1200 640 1200 764 l 1201 413 q 1188 92 1201 228 q 1136 -132 1175 -44 q 1101 -192 1118 -172 q 1061 -211 1083 -211 q 1024 -200 1042 -211 q 868 -37 1026 -200 q 849 -17 853 -22 q 971 3 921 -8 q 1031 40 1021 14 q 1043 111 1043 57 q 1042 163 1043 140 q 1039 200 1040 186 q 1036 251 1036 239 q 935 243 1007 251 q 779 233 842 232 q 771 107 771 161 q 781 -28 771 50 q 786 -82 786 -72 q 776 -122 786 -106 q 742 -153 767 -137 q 674 -194 692 -196 q 654 -165 668 -185 q 633 -133 650 -160 q 610 -85 617 -107 q 607 -67 607 -74 q 612 -37 607 -53 q 618 -17 617 -21 q 622 69 622 11 q 621 142 622 118 q 620 180 621 158 q 621 224 619 201 q 596 226 621 226 q 478 222 553 226 q 394 217 403 217 q 335 58 361 118 q 253 -73 310 -3 q 101 -207 197 -143 q 184 -23 144 -154 q 248 278 224 108 q 272 611 272 447 q 261 806 272 708 q 242 946 253 856 q 226 978 239 954 q 211 1024 214 1001 q 244 1031 224 1029 q 325 994 264 1015 q 415 972 386 974 q 639 996 503 988 q 961 1011 775 1004 q 1003 1026 989 1022 q 1072 1054 1044 1042 q 1092 1057 1083 1057 q 1154 1040 1121 1057 q 1210 997 1188 1022 q 1235 950 1233 972 l 1235 950 m 1082 944 q 1085 951 1085 947 q 1086 958 1085 954 q 1076 963 1079 963 q 1067 944 1068 950 q 1076 940 1075 942 l 1082 944 l 1082 944 m 725 917 q 722 914 722 915 q 717 911 721 913 l 717 906 l 726 906 l 725 917 l 725 917 m 1039 665 q 1041 743 1036 706 q 1047 789 1046 781 q 1054 851 1054 828 q 1040 900 1054 881 q 910 908 993 908 q 763 901 836 908 q 769 790 767 829 q 774 740 772 751 q 776 669 776 718 q 894 658 828 658 q 992 663 908 658 q 1039 665 1031 665 l 1039 665 m 618 656 q 626 786 626 692 q 621 890 626 868 q 549 882 590 885 q 440 867 497 882 q 427 810 431 842 q 424 733 424 779 q 422 689 424 721 q 418 632 421 657 q 618 656 563 632 l 618 656 m 418 601 q 410 606 415 601 l 410 583 l 418 583 l 418 601 l 418 601 m 1040 385 q 1051 453 1051 401 q 1047 518 1051 486 q 1036 558 1042 550 q 1026 558 1035 558 q 986 557 1017 557 q 776 547 797 553 l 776 343 q 859 354 783 349 q 992 360 935 360 q 1040 356 1032 360 l 1040 385 l 1040 385 m 610 342 q 615 421 615 363 q 613 550 615 489 q 415 525 474 532 q 408 425 417 519 q 396 321 399 331 q 510 325 461 321 q 610 342 558 329 l 610 342 m 322 532 q 328 519 324 525 l 328 532 l 322 532 l 322 532 m 311 415 q 319 450 319 431 q 314 472 319 467 q 307 422 307 457 l 303 407 l 311 407 l 311 415 l 311 415 m 1026 -74 l 1026 -83 l 1033 -83 l 1033 -74 l 1026 -74 z "},"线":{"ha":1389,"x_min":54,"x_max":1318,"o":"m 1306 136 q 1318 75 1318 119 q 1315 43 1318 53 l 1304 -222 q 1274 -229 1294 -229 q 1212 -217 1244 -229 q 1172 -203 1179 -206 q 1002 -130 1081 -175 q 886 -24 924 -85 q 848 -43 871 -26 q 815 -65 825 -60 q 678 -131 757 -100 q 538 -167 599 -162 q 649 -90 572 -153 q 783 30 726 -28 q 822 88 839 88 q 819 108 825 97 q 802 135 814 119 q 788 157 790 150 q 764 225 775 186 q 744 303 753 264 q 733 351 743 315 q 674 328 729 351 q 589 293 608 297 q 552 301 572 285 q 516 342 532 317 q 497 386 500 368 q 521 383 508 383 q 620 401 564 383 q 717 451 676 418 q 714 499 719 460 q 704 550 708 539 q 656 524 694 546 q 596 503 618 503 q 590 503 594 504 q 582 501 586 501 q 522 590 558 501 q 501 572 518 588 q 474 543 485 557 q 457 517 463 529 q 340 343 415 472 q 272 233 300 274 q 388 260 331 250 q 482 271 446 271 q 521 263 513 271 q 450 214 492 238 q 415 190 426 200 q 303 125 382 163 q 186 86 224 88 q 153 113 185 88 q 106 151 122 135 q 88 190 89 168 q 191 313 131 232 q 297 471 251 393 q 210 405 240 425 q 157 382 181 385 q 114 415 146 393 q 68 456 82 438 q 54 511 54 474 q 106 581 67 507 q 181 751 146 654 q 222 913 217 847 q 236 949 232 932 q 243 990 240 965 q 258 1057 249 1032 q 337 1032 289 1053 q 420 983 385 1011 q 456 926 456 956 q 401 870 422 899 q 333 761 381 842 l 297 699 l 275 639 q 233 532 243 547 q 273 538 238 529 q 344 546 308 547 l 368 581 q 381 614 371 593 q 403 674 385 625 q 428 765 421 724 q 460 744 440 753 q 485 733 481 736 q 546 696 526 714 q 563 640 565 678 q 551 619 561 631 q 522 590 542 607 q 597 606 557 592 q 668 637 638 619 q 704 664 699 654 q 714 819 714 751 q 697 972 714 917 q 678 985 682 979 q 671 1001 674 992 q 657 1029 668 1017 q 703 1033 682 1033 q 815 1018 742 1033 l 876 1006 q 884 996 879 1003 q 892 981 889 989 q 894 961 894 974 q 865 888 872 936 q 858 769 858 840 l 858 714 q 969 770 892 738 q 1082 804 1047 803 q 1113 780 1092 796 q 1146 745 1133 764 q 1158 701 1158 726 q 1134 690 1144 693 q 1101 688 1124 686 q 1024 676 1046 679 q 961 650 992 663 q 890 621 924 636 q 851 596 856 606 l 851 496 q 949 528 881 500 q 1054 575 1018 556 q 1088 594 1071 582 q 1122 614 1106 607 q 1163 622 1138 621 q 1197 606 1168 619 q 1246 568 1225 593 q 1267 510 1267 543 q 1188 488 1240 499 q 1132 475 1163 483 q 1009 434 1099 464 q 872 388 919 404 q 871 372 871 383 q 892 278 871 332 q 931 218 914 225 q 1003 292 961 243 q 1061 374 1044 340 q 1067 400 1064 382 q 1077 427 1071 418 q 1100 440 1083 436 q 1213 279 1200 360 q 1161 231 1185 251 q 1011 75 1019 103 q 1072 18 1010 76 q 1125 -29 1108 -12 q 1136 -42 1128 -32 q 1152 -56 1144 -51 q 1164 -54 1160 -60 q 1264 78 1188 -39 l 1306 136 l 1306 136 m 1132 822 q 1031 900 1097 839 q 942 1006 965 961 q 1078 992 1019 1001 q 1149 953 1138 982 q 1160 910 1160 938 q 1152 860 1160 885 q 1132 822 1144 835 l 1132 822 m 775 751 q 778 773 776 760 q 781 793 781 786 q 778 804 781 799 q 768 751 768 790 l 775 751 l 775 751 m 199 -18 q 285 27 196 -15 q 464 105 375 69 q 581 138 553 140 q 532 66 563 99 q 453 -8 501 33 q 376 -82 396 -57 q 300 -135 336 -107 q 240 -174 261 -162 q 192 -185 219 -185 q 164 -182 183 -185 q 114 -101 128 -137 q 93 -8 100 -64 q 128 -14 104 -10 q 167 -19 151 -18 q 199 -18 182 -19 l 199 -18 m 1003 8 q 972 43 979 24 l 957 43 q 971 11 956 29 q 1003 -12 986 -7 l 1003 8 l 1003 8 m 251 -57 q 261 -52 256 -54 q 274 -44 267 -50 l 269 -44 q 243 -53 261 -53 l 243 -56 l 251 -57 l 251 -57 m 803 365 l 810 351 l 810 365 l 803 365 z "},"舍":{"ha":1389,"x_min":-6,"x_max":1344,"o":"m 554 786 q 459 697 529 749 q 289 578 389 646 q 353 571 310 571 q 534 587 425 571 q 715 624 643 603 q 754 633 721 625 q 793 642 760 635 q 851 650 826 650 q 869 649 864 650 q 925 602 893 647 q 965 529 957 557 q 885 508 943 508 q 826 511 865 508 q 768 514 788 514 q 713 507 732 514 q 717 478 717 493 q 714 443 717 468 q 711 427 713 438 q 710 408 710 417 q 853 415 747 410 q 985 426 958 419 q 1132 457 1032 446 l 1163 433 q 1224 384 1201 406 q 1246 340 1246 363 q 1221 304 1246 319 q 1190 299 1210 299 q 1125 308 1164 299 q 1061 317 1078 317 q 713 293 854 319 q 707 242 707 281 q 710 176 707 207 q 761 171 715 171 q 882 179 832 171 q 914 200 896 185 q 939 218 929 213 q 961 224 949 224 q 985 218 974 224 q 1058 174 1026 197 q 1094 115 1090 150 q 1063 44 1072 89 q 1046 -72 1053 -1 q 1026 -199 1038 -161 q 1005 -213 1021 -203 q 972 -229 989 -224 q 932 -236 954 -235 q 913 -212 926 -229 q 884 -185 899 -196 q 856 -171 869 -174 q 732 -175 835 -175 l 682 -175 q 486 -186 529 -175 q 449 -199 465 -190 q 413 -224 433 -208 q 365 -253 382 -246 q 289 -179 307 -194 q 283 -46 288 -135 q 274 57 278 43 q 257 93 272 64 q 242 125 247 113 q 236 157 238 138 q 254 161 242 158 q 283 164 267 164 q 343 153 315 164 q 446 147 389 147 q 564 160 518 147 q 572 201 572 171 q 561 279 572 242 q 550 281 560 281 q 483 276 526 281 q 433 267 440 271 q 305 251 407 260 q 193 247 203 243 q 153 270 165 253 q 128 325 142 288 q 111 369 121 347 l 269 376 q 564 388 526 386 l 564 474 q 449 458 549 467 q 328 454 349 450 l 301 492 q 258 558 269 533 q 115 497 186 519 q -6 476 43 475 q 526 1021 463 771 q 505 1033 511 1026 q 497 1058 499 1039 q 531 1068 494 1058 q 596 1081 575 1081 q 653 1069 621 1081 q 736 1026 685 1057 l 733 974 q 865 863 771 911 q 1157 740 960 814 q 1187 728 1165 733 q 1223 722 1208 724 q 1243 718 1238 719 q 1314 705 1288 713 q 1344 682 1340 697 q 1225 568 1283 632 q 1184 528 1199 539 q 1143 517 1169 518 q 1086 542 1113 533 q 1065 551 1078 546 q 1033 565 1053 556 q 794 733 876 665 q 660 886 711 800 q 594 824 650 875 q 575 805 585 814 q 554 786 565 796 l 554 786 m 1138 646 q 1128 628 1129 633 l 1133 628 l 1143 619 q 1151 625 1146 621 q 1160 631 1158 628 q 1167 640 1163 633 q 1157 647 1157 647 l 1138 646 l 1138 646 m 388 518 q 380 515 383 515 q 376 513 376 514 q 381 508 375 511 q 390 507 386 506 q 397 508 394 508 q 392 513 394 511 q 388 518 389 515 l 388 518 m 111 369 q 111 371 110 371 l 111 369 l 111 369 m 907 75 q 651 65 797 72 q 425 50 506 58 q 430 -46 425 13 q 443 -111 435 -104 q 551 -94 468 -100 q 775 -82 633 -89 q 894 -76 828 -81 q 907 -48 903 -76 q 911 17 911 -19 q 907 75 911 58 l 907 75 z "},"车":{"ha":1389,"x_min":49,"x_max":1324,"o":"m 1211 279 q 1281 209 1244 264 q 1324 108 1317 154 q 1021 99 1244 110 q 811 93 821 90 q 808 8 808 63 q 799 -122 806 -71 q 765 -237 792 -172 q 692 -185 739 -224 q 639 -131 646 -147 l 654 -31 q 646 10 646 -21 q 647 43 646 28 q 649 71 649 58 q 281 25 546 71 q 169 8 225 15 q 107 85 125 54 q 85 158 89 117 q 165 154 96 154 q 460 165 293 154 q 649 189 626 175 q 657 243 657 203 q 653 328 657 269 q 549 312 624 328 q 453 292 474 296 q 285 260 313 258 q 254 297 279 269 q 222 338 232 322 q 211 372 213 353 q 272 453 244 404 q 340 590 299 501 q 411 738 386 692 q 294 722 401 733 q 133 710 188 710 q 101 731 122 708 q 65 788 81 754 q 49 847 49 821 q 51 864 49 853 q 249 842 107 842 q 453 851 363 842 l 479 914 q 500 964 492 940 q 508 1003 508 988 q 503 1026 508 1017 q 494 1051 497 1039 q 489 1085 492 1064 q 532 1092 499 1092 q 628 1072 576 1092 q 732 1004 681 1053 q 723 961 731 981 q 700 915 715 942 q 675 864 685 889 q 1111 935 1107 931 q 1129 921 1121 926 q 1143 911 1138 915 q 1213 849 1189 876 q 1240 779 1238 822 q 1231 767 1235 774 q 1218 756 1226 760 q 1092 760 1181 760 q 799 753 971 760 q 619 743 626 746 q 554 658 586 710 q 472 514 522 606 q 411 403 426 428 q 557 428 472 415 q 664 446 544 426 q 669 504 669 458 q 661 622 669 561 q 640 697 653 682 l 708 699 q 770 693 744 699 q 817 672 796 688 q 833 619 833 656 q 822 536 833 594 q 817 503 821 528 q 813 458 813 478 q 903 467 861 457 q 1001 497 944 476 q 1101 528 1075 521 q 1171 447 1140 490 q 1201 379 1201 404 q 1179 358 1201 360 q 1029 376 1099 376 q 883 363 969 376 q 797 353 821 354 l 801 217 q 1058 244 881 222 q 1211 279 1235 265 l 1211 279 m 601 1036 q 611 1028 607 1032 q 625 1024 615 1025 l 621 1044 l 601 1044 l 601 1036 l 601 1036 m 1079 876 q 1083 879 1082 879 q 1089 882 1085 879 l 1089 885 l 1067 885 q 1056 882 1067 885 l 1056 876 l 1079 876 l 1079 876 m 1035 821 q 1043 814 1039 815 q 1052 813 1047 813 q 1060 813 1057 813 l 1071 818 l 1071 835 q 1031 832 1040 832 l 1031 821 l 1035 821 l 1035 821 m 224 778 q 201 774 218 774 l 199 767 q 201 760 200 761 l 201 756 q 222 763 207 758 q 247 774 238 768 l 247 778 l 224 778 l 224 778 m 85 158 q 83 159 83 158 q 85 161 83 160 l 85 158 l 85 158 z "},"间":{"ha":1389,"x_min":110,"x_max":1260,"o":"m 1242 706 q 1246 483 1242 604 q 1249 371 1247 439 q 1250 214 1250 303 q 1228 -76 1250 -6 l 1218 -111 q 1194 -182 1206 -157 q 1156 -222 1182 -207 q 1079 -237 1129 -237 q 1033 -207 1068 -229 q 875 -86 904 -125 q 933 -79 893 -82 q 1017 -67 986 -76 q 1064 -28 1049 -58 q 1077 25 1074 -17 q 1081 174 1081 67 q 1076 574 1081 297 q 1072 650 1072 599 l 1074 761 q 1056 894 1074 878 q 967 896 1001 894 l 856 897 q 804 894 807 897 q 756 871 796 890 q 700 856 715 851 q 661 906 685 867 q 599 988 628 957 l 724 988 q 838 1003 785 999 q 928 1010 890 1008 q 1022 1022 992 1013 q 1085 1067 1051 1031 q 1139 1063 1122 1067 q 1178 1042 1156 1058 q 1258 974 1200 1025 q 1249 885 1260 949 q 1238 792 1238 824 q 1242 751 1238 771 l 1242 706 l 1242 706 m 483 986 q 493 947 493 972 q 471 870 493 907 q 419 833 449 833 q 383 881 406 857 q 319 940 360 904 q 255 999 279 975 q 215 1049 231 1024 l 304 1040 q 440 1024 394 1035 q 483 986 486 1014 l 483 986 m 1118 911 q 1128 909 1122 910 q 1142 907 1133 908 q 1138 922 1140 919 q 1118 928 1131 925 l 1114 922 q 1118 911 1117 913 l 1118 911 m 799 926 q 775 917 794 924 q 772 907 772 914 l 775 907 q 793 916 783 913 q 810 922 803 919 l 810 926 l 799 926 l 799 926 m 296 97 q 294 68 294 89 q 300 -21 294 46 q 307 -133 307 -115 q 283 -218 307 -206 q 205 -185 257 -228 q 122 -90 153 -143 q 144 228 125 71 q 157 361 153 307 q 161 493 161 415 q 151 756 161 600 q 132 815 146 785 q 110 910 111 864 q 211 858 151 900 q 283 782 271 817 q 298 620 292 758 q 304 333 304 482 q 296 97 304 146 l 296 97 m 917 221 q 902 40 917 108 q 844 -32 888 -28 q 771 44 793 17 q 655 37 726 44 q 569 17 583 29 q 553 -24 565 -6 q 519 -47 540 -43 l 499 -25 q 456 24 472 3 q 433 71 440 44 q 435 210 429 90 q 443 346 442 329 l 444 375 q 450 504 450 407 q 444 636 450 613 q 433 667 442 647 q 424 707 425 688 q 443 710 431 710 q 478 701 463 710 q 518 675 494 692 q 549 657 542 657 q 594 678 567 671 q 665 692 621 685 q 739 706 710 699 q 786 729 768 714 q 872 717 833 731 q 922 675 911 703 q 932 629 932 661 q 922 533 932 597 l 914 458 q 917 393 917 414 l 915 351 l 917 221 l 917 221 m 774 435 q 775 451 774 443 q 778 467 776 460 q 785 543 785 526 q 776 593 785 575 q 699 600 756 600 q 613 592 650 600 q 572 571 575 585 q 567 504 567 560 q 569 408 567 439 q 613 415 589 410 q 644 422 638 421 q 681 431 650 424 q 740 438 711 438 q 774 435 751 438 l 774 435 m 779 139 q 778 236 778 181 q 778 295 778 279 q 779 317 779 311 q 776 334 779 326 q 771 344 772 342 l 585 313 q 572 196 574 222 q 569 99 569 169 q 642 123 590 114 q 779 139 693 132 l 779 139 m 224 -108 q 229 -74 226 -101 q 224 -69 228 -69 l 204 -69 q 201 -87 201 -83 q 224 -108 201 -103 l 224 -108 z "}}}
